<svg id="Layer_1" data-name="Layer 1" xmlns="http://www.w3.org/2000/svg" viewBox="0 0 40.03 40"><defs><style>.cls-1{fill:#010101;}</style></defs><title>insta_icon</title><path class="cls-1" d="M23.54,17.43a4.35,4.35,0,0,0-7.11,0A4.5,4.5,0,0,0,15.6,20a4.39,4.39,0,0,0,8.77,0A4.5,4.5,0,0,0,23.54,17.43Z" transform="translate(0.02 0)"/><path class="cls-1" d="M26.3,17.46A6.22,6.22,0,0,1,26.81,20a6.83,6.83,0,1,1-13.65,0,6.11,6.11,0,0,1,.51-2.54H9.83V27.65a2.58,2.58,0,0,0,2.5,2.51h15.3a2.58,2.58,0,0,0,2.51-2.51V17.46Z" transform="translate(0.02 0)"/><polygon class="cls-1" points="29.02 10.41 25.33 10.41 25.33 14.63 29.52 14.63 29.52 10.95 29.52 10.38 29.02 10.41"/><path class="cls-1" d="M30,0H10A10.06,10.06,0,0,0,0,10V30A10.05,10.05,0,0,0,10,40H30A10.06,10.06,0,0,0,40,30V10A10.11,10.11,0,0,0,30,0Zm2.42,17.43h0V27.65a4.67,4.67,0,0,1-4.74,4.73H12.33A4.66,4.66,0,0,1,7.6,27.65V12.35a4.66,4.66,0,0,1,4.73-4.73h15.3a4.67,4.67,0,0,1,4.74,4.73v5.08Z" transform="translate(0.02 0)"/></svg>